# xmcd CD database file
#
# Track frame offsets:
#	150
#	27084
#	70021
#	87551
#	133454
#	186940
#	224231
#	264965
#
# Disc length: 3889 seconds
#
# Revision: 0
# Processed by: cddbd v1.5.2PL0 Copyright (c) Steve Scherf et al.
# Submitted via: CDex 1.51
#
DISCID=7c0f2f08
DTITLE=Florian Poser's Brazilian Experience - Live In Berlin
DYEAR=2006
DGENRE=Jazz
TTITLE0=Blue Samba
TTITLE1=Calm Down
TTITLE2=Dança Do Diabinho
TTITLE3=Alone
TTITLE4=Antonio's Dance
TTITLE5=Lost And Found
TTITLE6=Excitation
TTITLE7=Epilogue
EXTD=YEAR: 2006
EXTT0=
EXTT1=
EXTT2=
EXTT3=
EXTT4=
EXTT5=
EXTT6=
EXTT7=
PLAYORDER=
